<mxfile host="app.diagrams.net" modified="2024-05-15T18:53:19.280Z" agent="Mozilla/5.0 (Windows NT 10.0; Win64; x64) AppleWebKit/537.36 (KHTML, like Gecko) Chrome/124.0.0.0 Safari/537.36" version="24.4.2" etag="z5gHDJ_1g3d6SFPHXODH" type="github">
  <diagram name="PÃ¡gina-1" id="LyGzIkMXbnLC3wXO-mOi">
    <mxGraphModel>
      <root>
        <mxCell id="0" />
        <mxCell id="1" parent="0" />
      </root>
    </mxGraphModel>
  </diagram>
</mxfile>
